#!OML:ASF F:\VICON\USERDATA\INSTALL\Justin_Nancy\Justin_Nancy.ASF
:FULLY-SPECIFIED
:DEGREES
252
root 10.1186 17.3955 6.81911 1.21 -61.3844 1.96114
lowerback 5.51813 1.8404 0.916622
upperback -0.564607 2.57387 1.86701
thorax -3.72234 1.2749 1.18957
lowerneck -14.3603 -4.84965 -12.0215
upperneck 25.3279 -5.97924 7.1034
head 11.1626 -3.13896 3.7691
rclavicle 8.07563e-014 3.97569e-015
rhumerus -25.9902 -6.03612 -85.9611
rradius 31.9858
rwrist 5.80848
rhand -14.1011 11.7296
rfingers 7.12502
rthumb 12.0316 -17.9046
lclavicle 8.07563e-014 3.97569e-015
lhumerus -35.5487 20.2045 79.7235
lradius 23.5685
lwrist -10.3891
lhand -15.8814 26.6737
lfingers 7.12502
lthumb 10.3146 56.4007
rfemur -3.03057 4.96112 33.662
rtibia 17.566
rfoot -10.7506 -5.98695
rtoes 13.5709
lfemur -23.1346 1.38276 -14.0685
ltibia 63.2476
lfoot -5.27832 2.80912
ltoes 4.87895
253
root 10.0441 17.3958 6.89336 0.352978 -62.726 3.05575
lowerback 5.57701 1.89417 0.216085
upperback -0.692634 2.60131 1.79215
thorax -3.91638 1.30366 1.49765
lowerneck -14.0682 -4.57501 -11.4039
upperneck 25.1828 -5.54201 6.24185
head 10.9551 -2.98686 3.40984
rclavicle -1.58531e-014 -1.11319e-014
rhumerus -26.1034 -5.6984 -86.0918
rradius 32.3077
rwrist 6.06248
rhand -13.1087 12.9175
rfingers 7.12502
rthumb 12.9884 -16.6582
lclavicle -1.58531e-014 -1.11319e-014
lhumerus -35.6379 19.9401 79.7057
lradius 23.5612
lwrist -10.5438
lhand -16.3881 26.7464
lfingers 7.12502
lthumb 9.82573 56.4971
rfemur -2.3807 5.93476 33.0448
rtibia 17.0917
rfoot -10.6831 -5.77677
rtoes 12.2455
lfemur -23.7523 1.10619 -14.4751
ltibia 62.6902
lfoot -6.26429 3.2024
ltoes -0.389388
254
root 9.97696 17.3884 6.98162 1.65421 -63.8968 1.41312
lowerback 5.87862 1.86228 1.04674
upperback -0.727554 2.62883 2.03702
thorax -4.09785 1.29902 1.27278
lowerneck -14.1498 -4.76896 -10.9373
upperneck 24.8419 -5.7476 5.64991
head 10.8326 -3.09607 3.07722
rclavicle -7.96133e-014 -3.18055e-015
rhumerus -26.1785 -5.26584 -86.2703
rradius 32.6333
rwrist 6.14455
rhand -12.6679 13.9989
rfingers 7.12502
rthumb 13.4133 -15.5492
lclavicle -7.96133e-014 -3.18055e-015
lhumerus -35.6439 19.7161 79.7978
lradius 23.3864
lwrist -10.6621
lhand -17.5544 26.0903
lfingers 7.12502
lthumb 8.70036 55.891
rfemur -1.6099 6.74035 33.7376
rtibia 16.9442
rfoot -11.4401 -5.50329
rtoes 18.2466
lfemur -24.1934 1.10802 -13.5168
ltibia 62.1663
lfoot -7.23281 3.31822
ltoes -4.73384
255
root 9.9202 17.3774 7.06991 3.75721 -64.8316 -1.06281
lowerback 6.10106 1.77677 2.37517
upperback -0.596749 2.6156 2.22121
thorax -4.03725 1.26174 0.716963
lowerneck -14.4318 -4.83742 -10.6982
upperneck 24.6113 -5.8481 5.61582
head 10.8017 -3.11274 3.00319
rclavicle -5.26779e-015 2.3059e-014
rhumerus -26.0323 -4.77439 -86.6796
rradius 33.179
rwrist 5.92415
rhand -12.9102 14.052
rfingers 7.12502
rthumb 13.1797 -15.5114
lclavicle -5.26779e-015 2.3059e-014
lhumerus -35.1922 19.1928 79.9627
lradius 23.2306
lwrist -10.6965
lhand -18.4281 25.2604
lfingers 7.12502
lthumb 7.8572 55.0944
rfemur -1.08333 6.96426 34.7112
rtibia 17.0078
rfoot -12.055 -4.7229
rtoes 22.3463
lfemur -24.743 0.832128 -12.175
ltibia 61.4963
lfoot -7.98309 3.08202
ltoes -7.71661
256
root 9.84852 17.3763 7.14725 3.16403 -65.5934 0.00500492
lowerback 5.71227 1.7487 2.01486
upperback -0.583381 2.53165 1.97662
thorax -3.80832 1.2293 0.68599
lowerneck -14.6523 -4.85345 -10.7075
upperneck 24.519 -5.88776 5.80704
head 10.8199 -3.10333 3.06456
rclavicle -3.73218e-014 -1.35174e-014
rhumerus -26.0423 -3.98145 -87.1314
rradius 33.9253
rwrist 5.10943
rhand -12.9523 14.0439
rfingers 7.12502
rthumb 13.1392 -15.5222
lclavicle -3.73218e-014 -1.35174e-014
lhumerus -34.8083 18.8577 79.9453
lradius 23.2333
lwrist -11.2238
lhand -18.351 25.03
lfingers 7.12502
lthumb 7.93154 54.8612
rfemur -1.00779 7.00963 33.9902
rtibia 16.9144
rfoot -12.1538 -3.9205
rtoes 22.7603
lfemur -25.6228 0.0619829 -12.4586
ltibia 60.5204
lfoot -8.72408 2.64803
ltoes -9.07246
257
root 9.76752 17.3791 7.22812 1.39761 -66.3553 2.42183
lowerback 5.22163 1.69942 1.02649
upperback -0.642239 2.38295 1.69352
thorax -3.62045 1.17682 0.973577
lowerneck -14.8672 -4.81433 -10.6698
upperneck 24.5997 -5.78923 5.68431
head 10.8775 -3.06717 3.0252
rclavicle 6.78353e-014 7.95139e-016
rhumerus -25.9611 -3.27996 -87.5796
rradius 34.4379
rwrist 4.3649
rhand -13.48 13.332
rfingers 7.12502
rthumb 12.6304 -16.2661
lclavicle 6.78353e-014 7.95139e-016
lhumerus -34.6652 18.8924 79.8658
lradius 23.2331
lwrist -11.9566
lhand -18.3227 25.0466
lfingers 7.12502
lthumb 7.95893 54.8768
rfemur -1.04946 6.95638 32.6842
rtibia 16.9452
rfoot -12.4436 -3.41525
rtoes 21.5645
lfemur -26.448 -0.624653 -13.4189
ltibia 59.3474
lfoot -9.13745 2.63023
ltoes -9.38225
258
root 9.69006 17.3711 7.30583 1.2856 -67.0867 2.68541
lowerback 5.19212 1.60677 0.920061
upperback -0.671148 2.25135 1.6396
thorax -3.63408 1.11331 0.988844
lowerneck -14.8944 -4.7384 -10.6124
upperneck 24.3881 -5.6886 5.71342
head 10.7931 -3.00852 3.03833
rclavicle -3.46879e-014 -2.38542e-015
rhumerus -25.799 -2.84828 -88.0238
rradius 34.6364
rwrist 4.34957
rhand -14.04 12.8002
rfingers 7.12502
rthumb 12.0905 -16.8305
lclavicle -3.46879e-014 -2.38542e-015
lhumerus -34.3552 18.5356 79.8306
lradius 23.0528
lwrist -11.7354
lhand -18.4269 24.9792
lfingers 7.12502
lthumb 7.85831 54.8132
rfemur -0.87136 6.87693 32.4413
rtibia 17.1594
rfoot -12.8516 -3.05738
rtoes 20.1499
lfemur -27.0406 -1.00662 -13.3836
ltibia 58.1646
lfoot -10.2227 1.31701
ltoes -10.0313
259
root 9.61279 17.3549 7.38065 1.40052 -67.9463 2.62831
lowerback 5.22453 1.5221 0.87999
upperback -0.671845 2.1354 1.60027
thorax -3.65153 1.05614 0.979416
lowerneck -14.856 -4.68354 -10.314
upperneck 24.0492 -5.65404 5.63915
head 10.6438 -2.96884 2.96332
rclavicle -1.19271e-014 2.38542e-015
rhumerus -25.9006 -2.26206 -88.3934
rradius 35.1681
rwrist 4.5249
rhand -13.0545 13.527
rfingers 7.12502
rthumb 13.0406 -16.0453
lclavicle -1.19271e-014 2.38542e-015
lhumerus -34.1358 18.332 79.6138
lradius 23.189
lwrist -11.2649
lhand -17.5032 25.4475
lfingers 7.12502
lthumb 8.74977 55.2461
rfemur -0.773773 6.63873 32.3833
rtibia 17.6273
rfoot -13.1716 -2.66953
rtoes 16.4273
lfemur -27.5564 -0.988187 -13.1769
ltibia 56.9069
lfoot -10.0459 2.19774
ltoes -6.5595
260
root 9.55115 17.3072 7.45764 0.872843 -68.709 3.31758
lowerback 5.41439 1.47479 0.424396
upperback -0.833682 2.05337 1.71987
thorax -3.94585 1.02633 1.35791
lowerneck -14.719 -4.6893 -10.4265
upperneck 23.9602 -5.59055 5.42437
head 10.5775 -2.97712 2.91383
rclavicle 1.52567e-014 -7.95139e-016
rhumerus -26.3378 -1.34438 -88.389
rradius 35.7985
rwrist 3.76955
rhand -12.3759 14.2017
rfingers 7.12502
rthumb 13.6947 -15.3277
lclavicle 1.52567e-014 -7.95139e-016
lhumerus -34.3042 18.8929 79.4499
lradius 23.3099
lwrist -11.9632
lhand -16.4927 25.329
lfingers 7.12502
lthumb 9.72483 55.0845
rfemur -0.841212 5.88637 32.1418
rtibia 17.8556
rfoot -13.3611 -3.61561
rtoes 3.06394
lfemur -28.2421 -0.852037 -13.3315
ltibia 55.5644
lfoot -10.0481 1.62123
ltoes -4.88412
261
root 9.49008 17.3168 7.51489 1.43042 -69.0312 2.90979
lowerback 5.53678 1.48714 0.680594
upperback -0.929306 2.09363 1.81076
thorax -4.10937 1.04084 1.30034
lowerneck -14.5195 -4.89094 -11.0222
upperneck 23.7773 -5.81438 5.71515
head 10.524 -3.10026 3.08708
rclavicle -7.07176e-014 -2.78299e-014
rhumerus -26.526 -1.14433 -88.1747
rradius 36.2853
rwrist 3.19741
rhand -12.4268 14.1748
rfingers 7.12502
rthumb 13.6457 -15.3579
lclavicle -7.07176e-014 -2.78299e-014
lhumerus -33.981 18.4843 79.8022
lradius 23.2455
lwrist -12.2933
lhand -15.0489 25.2869
lfingers 7.12502
lthumb 11.1176 54.9724
rfemur -0.410746 7.50314 32.1302
rtibia 17.8446
rfoot -13.9724 -3.67352
rtoes 14.0966
lfemur -28.9966 -1.26725 -12.975
ltibia 54.0463
lfoot -10.2061 1.25809
ltoes -10.6081
262
root 9.39214 17.3464 7.61 -1.27398 -69.9629 5.35027
lowerback 5.30103 1.73777 0.709663
upperback -0.326009 2.39294 1.13236
thorax -3.32657 1.1848 0.574898
lowerneck -14.8458 -5.12927 -10.6453
upperneck 23.3504 -6.21097 5.85243
head 10.4586 -3.21436 3.0077
rclavicle 3.97072e-014 1.59028e-015
rhumerus -25.9782 -2.03612 -88.4172
rradius 36.6036
rwrist 3.82404
rhand -12.2791 14.4513
rfingers 7.12502
rthumb 13.788 -15.0718
lclavicle 3.97072e-014 1.59028e-015
lhumerus -33.039 17.9884 79.779
lradius 23.4476
lwrist -12.3927
lhand -13.9845 25.7431
lfingers 7.12502
lthumb 12.144 55.3707
rfemur 0.837963 7.5605 30.9678
rtibia 17.6231
rfoot -14.5417 -2.79235
rtoes 16.9354
lfemur -28.4872 -1.88222 -13.8801
ltibia 52.4522
lfoot -10.822 1.72637
ltoes -14.7072
263
root 9.31746 17.3258 7.6822 1.03624 -70.6666 2.67786
lowerback 5.9749 1.51937 1.30082
upperback -0.50094 2.1709 1.6162
thorax -3.88273 1.06263 0.739018
lowerneck -14.962 -4.83568 -10.0305
upperneck 23.5133 -5.7476 5.05666
head 10.4509 -3.0412 2.6846
rclavicle 3.12092e-014 3.97569e-015
rhumerus -26.3798 -1.47834 -88.4648
rradius 36.888
rwrist 4.12811
rhand -12.47 14.5017
rfingers 7.12502
rthumb 13.6041 -15.0338
lclavicle 3.12092e-014 3.97569e-015
lhumerus -33.9569 19.769 79.0824
lradius 24.1154
lwrist -13.5309
lhand -15.2051 25.9622
lfingers 7.12502
lthumb 10.9669 55.6558
rfemur 1.56121 7.01808 31.9004
rtibia 17.2904
rfoot -14.5541 -2.58655
rtoes 14.0418
lfemur -28.7895 -1.74202 -12.798
ltibia 51.0541
lfoot -11.1466 1.48728
ltoes -18.8217
264
root 9.24711 17.2995 7.72939 4.04455 -70.9325 -0.15039
lowerback 4.58566 1.88967 3.51004
upperback 0.566369 2.69672 0.902248
thorax -1.86782 1.31634 -1.20043
lowerneck -16.1499 -5.64488 -10.0628
upperneck 22.8886 -7.01929 6.3158
head 10.6094 -3.43738 2.93217
rclavicle 2.38542e-014 -1.59028e-015
rhumerus -24.3965 -4.09251 -89.0479
rradius 37.0033
rwrist 4.20248
rhand -12.489 14.4025
rfingers 7.12502
rthumb 13.5858 -15.1342
lclavicle 2.38542e-014 -1.59028e-015
lhumerus -31.2034 18.754 79.172
lradius 24.1538
lwrist -14.3937
lhand -15.7786 25.7183
lfingers 7.12502
lthumb 10.4137 55.4404
rfemur 1.82325 6.74842 32.9123
rtibia 16.5152
rfoot -14.2839 -3.01438
rtoes 11.7633
lfemur -29.8977 -1.92044 -11.4348
ltibia 49.6211
lfoot -11.303 0.429564
ltoes -18.7363
265
root 9.16426 17.2952 7.77431 4.19329 -71.3221 0.0581618
lowerback 4.7793 1.65705 2.64285
upperback 0.233263 2.36882 1.26345
thorax -2.38459 1.15194 -0.34066
lowerneck -16.0173 -5.61371 -10.7258
upperneck 22.9133 -6.88671 6.58669
head 10.6187 -3.40842 3.16266
rclavicle -5.96354e-016 1.59028e-014
rhumerus -24.9596 -2.7859 -89.0042
rradius 37.4817
rwrist 3.68806
rhand -12.3079 14.3581
rfingers 7.12502
rthumb 13.7603 -15.1669
lclavicle -5.96354e-016 1.59028e-014
lhumerus -31.4699 18.9942 79.2208
lradius 24.1888
lwrist -13.874
lhand -15.9593 25.4781
lfingers 7.12502
lthumb 10.2394 55.2089
rfemur 2.17083 6.8233 32.8364
rtibia 15.7553
rfoot -14.1965 -3.57316
rtoes 9.73274
lfemur -30.7331 -2.91671 -10.9419
ltibia 48.0843
lfoot -11.1859 -0.34663
ltoes -13.5834
